<svg width="5" height="8" viewBox="0 0 5 8" fill="none" xmlns="http://www.w3.org/2000/svg">
<path d="M0.168225 7.83178C0.056075 7.71963 0 7.58879 0 7.43925C0 7.28972 0.056075 7.15888 0.168225 7.04673L3.21495 4L0.168225 0.953271C0.056075 0.841121 0 0.71028 0 0.560748C0 0.411215 0.056075 0.280374 0.168225 0.168224C0.280374 0.0560747 0.411215 0 0.560748 0C0.71028 0 0.841122 0.0560747 0.953271 0.168224L4.31776 3.53271C4.38006 3.59502 4.42692 3.66654 4.45832 3.74729C4.48922 3.82854 4.50467 3.91277 4.50467 4C4.50467 4.08723 4.48922 4.17121 4.45832 4.25196C4.42692 4.33321 4.38006 4.40498 4.31776 4.46729L0.953271 7.83178C0.841122 7.94392 0.71028 8 0.560748 8C0.411215 8 0.280374 7.94392 0.168225 7.83178Z" fill="#292B2E"/>
</svg>
