<svg width="25" height="24" viewBox="0 0 25 24" fill="none" xmlns="http://www.w3.org/2000/svg">
<path d="M15.9687 11.9398C15.8885 11.9398 15.8117 11.9297 15.7385 11.9094C15.6647 11.8896 15.5944 11.853 15.5276 11.7995C14.4048 10.797 13.4424 9.83779 12.6404 8.92191C11.8383 8.00655 11.4373 7.16124 11.4373 6.38596C11.4373 5.71763 11.6681 5.15275 12.1295 4.69133C12.5904 4.23044 13.155 4 13.8233 4C14.2243 4 14.6119 4.09357 14.9862 4.2807C15.3605 4.46784 15.688 4.74185 15.9687 5.10276C16.2627 4.74185 16.5934 4.46784 16.9608 4.2807C17.3286 4.09357 17.713 4 18.114 4C18.7957 4 19.3638 4.23044 19.8183 4.69133C20.2728 5.15275 20.5 5.71763 20.5 6.38596C20.5 7.16124 20.099 8.00655 19.297 8.92191C18.495 9.83779 17.5326 10.797 16.4098 11.7995C16.3563 11.853 16.2895 11.8896 16.2093 11.9094C16.1291 11.9297 16.0489 11.9398 15.9687 11.9398ZM15.9687 10.5363C16.8241 9.77444 17.5927 9.01574 18.2744 8.26025C18.9561 7.5053 19.297 6.88053 19.297 6.38596C19.297 6.03843 19.1866 5.75425 18.9658 5.53343C18.7455 5.31315 18.4616 5.20301 18.114 5.20301C17.9135 5.20301 17.7063 5.253 17.4925 5.35298C17.2786 5.4535 17.0714 5.63743 16.8709 5.90476L15.9687 6.98747L15.0664 5.90476C14.8659 5.63743 14.6587 5.4535 14.4449 5.35298C14.231 5.253 14.0238 5.20301 13.8233 5.20301C13.4758 5.20301 13.1919 5.31315 12.9716 5.53343C12.7508 5.75425 12.6404 6.03843 12.6404 6.38596C12.6404 6.88053 12.9812 7.5053 13.6629 8.26025C14.3446 9.01574 15.1132 9.77444 15.9687 10.5363ZM14.2644 18.4561C14.2911 18.4695 14.3147 18.4762 14.335 18.4762C14.3548 18.4762 14.378 18.4695 14.4048 18.4561L19.1165 16.9925C19.0764 16.8053 18.9896 16.665 18.8559 16.5714C18.7222 16.4779 18.5752 16.4311 18.4148 16.4311H14.505C14.1441 16.4311 13.8434 16.4145 13.6028 16.3814C13.3622 16.3477 13.1082 16.2907 12.8409 16.2105L11.5977 15.8095C11.424 15.7561 11.3037 15.6526 11.2368 15.4991C11.17 15.3452 11.1633 15.1813 11.2168 15.0075C11.2703 14.8605 11.3705 14.7501 11.5175 14.6763C11.6646 14.603 11.8183 14.5865 11.9787 14.6266L13.0213 15.0075C13.2619 15.0744 13.5327 15.1243 13.8337 15.1575C14.1342 15.1912 14.5251 15.2147 15.0063 15.2281H15.2068C15.2068 15.0276 15.1635 14.8538 15.0768 14.7068C14.9897 14.5597 14.8726 14.4662 14.7256 14.4261L10.0739 12.7018H8.51003V16.8321L14.2644 18.4561ZM13.9436 19.6391L8.51003 18.0752C8.41646 18.4094 8.22932 18.6767 7.94862 18.8772C7.66792 19.0777 7.36717 19.1779 7.04637 19.1779H5.94361C5.54261 19.1779 5.20175 19.0341 4.92105 18.7465C4.64035 18.4593 4.5 18.1153 4.5 17.7143V12.9424C4.5 12.5414 4.64035 12.2005 4.92105 11.9198C5.20175 11.6391 5.54261 11.4987 5.94361 11.4987H9.97368C10.0673 11.4987 10.1541 11.5054 10.2343 11.5188C10.3145 11.5322 10.3947 11.5522 10.4749 11.5789L15.1466 13.3033C15.5075 13.4369 15.8083 13.6741 16.0489 14.0146C16.2895 14.3558 16.4098 14.7602 16.4098 15.2281H18.4148C18.9896 15.2281 19.4609 15.412 19.8287 15.7798C20.196 16.1472 20.3797 16.6316 20.3797 17.2331C20.3797 17.4603 20.3195 17.6442 20.1992 17.7849C20.0789 17.9249 19.8918 18.0351 19.6378 18.1153L14.7857 19.619C14.652 19.6591 14.5117 19.6827 14.3647 19.6896C14.2176 19.696 14.0773 19.6792 13.9436 19.6391ZM5.70301 17.7143C5.70301 17.7945 5.72653 17.8581 5.77358 17.9052C5.8201 17.9517 5.87678 17.9749 5.94361 17.9749H7.04637C7.12657 17.9749 7.19019 17.9549 7.23724 17.9148C7.28376 17.8747 7.30702 17.8079 7.30702 17.7143V12.7018H5.94361C5.87678 12.7018 5.8201 12.725 5.77358 12.7715C5.72653 12.8186 5.70301 12.8755 5.70301 12.9424V17.7143Z" fill="#292B2E"/>
</svg>
