<svg width="15" height="16" viewBox="0 0 15 16" fill="none" xmlns="http://www.w3.org/2000/svg">
<path d="M1.45455 14.5455H4.70303V8.77576H9.84242V14.5455H13.0909V5.81818L7.27273 1.4303L1.45455 5.81818V14.5455ZM1.45455 16C1.05051 16 0.707233 15.8584 0.424727 15.5753C0.141576 15.2928 0 14.9495 0 14.5455V5.81818C0 5.59192 0.0523638 5.37374 0.157091 5.16364C0.262465 4.95354 0.40404 4.78384 0.581818 4.65455L6.4 0.266667C6.52929 0.169697 6.66667 0.100848 6.81212 0.060121C6.95758 0.0200402 7.11111 0 7.27273 0C7.43434 0 7.58788 0.0200402 7.73333 0.060121C7.87879 0.100848 8.01616 0.169697 8.14545 0.266667L13.9636 4.65455C14.1414 4.78384 14.2827 4.95354 14.3874 5.16364C14.4928 5.37374 14.5455 5.59192 14.5455 5.81818V14.5455C14.5455 14.9495 14.4039 15.2928 14.1207 15.5753C13.8382 15.8584 13.4949 16 13.0909 16H8.38788V10.2303H6.15758V16H1.45455Z" fill="#292B2E"/>
</svg>
