<svg width="25" height="24" viewBox="0 0 25 24" fill="none" xmlns="http://www.w3.org/2000/svg">
<path d="M6.75195 17.748C6.05135 17.0308 5.50087 16.2134 5.10052 15.2959C4.70017 14.3785 4.5 13.4276 4.5 12.4434C4.5 11.4593 4.6875 10.4791 5.06249 9.50289C5.43815 8.52737 6.05135 7.62259 6.90209 6.78853C7.50261 6.17133 8.2616 5.66656 9.17906 5.27422C10.0965 4.88254 11.1351 4.58228 12.2948 4.37344C13.4538 4.16525 14.7172 4.04448 16.0851 4.01112C17.4529 3.97776 18.8958 4.01946 20.4138 4.13623C20.5139 5.57081 20.5473 6.96802 20.5139 8.32787C20.4805 9.68705 20.3638 10.9505 20.1636 12.1182C19.9634 13.2858 19.6675 14.3368 19.2758 15.2709C18.8835 16.205 18.3787 16.9807 17.7615 17.5979C16.9441 18.432 16.0644 19.0408 15.1222 19.4245C14.1794 19.8082 13.2242 20 12.2567 20C11.2392 20 10.2427 19.7998 9.26714 19.3995C8.29096 18.9991 7.45256 18.4487 6.75195 17.748ZM9.00391 17.5729C9.50434 17.8898 10.0341 18.1234 10.5933 18.2735C11.1518 18.4236 11.7063 18.4987 12.2567 18.4987C13.0241 18.4987 13.7874 18.3446 14.5467 18.0363C15.3054 17.7274 16.0183 17.2309 16.6856 16.547C16.9858 16.2467 17.2901 15.8257 17.5984 15.2839C17.9073 14.7414 18.1745 14.0322 18.4001 13.1561C18.6249 12.2806 18.7957 11.2217 18.9125 9.9793C19.0293 8.73622 19.0543 7.2556 18.9876 5.53745C18.1702 5.50408 17.2444 5.49574 16.2102 5.51242C15.1759 5.52911 14.146 5.61251 13.1205 5.76264C12.0943 5.91277 11.1224 6.15031 10.205 6.47526C9.28749 6.80088 8.54518 7.24726 7.97802 7.81442C7.24405 8.56507 6.73127 9.31973 6.43968 10.0784C6.14743 10.8377 6.0013 11.5593 6.0013 12.2433C6.0013 13.1941 6.1848 14.0532 6.55178 14.8205C6.91877 15.5878 7.30243 16.155 7.70278 16.522C8.26994 15.2709 9.05796 14.0655 10.0668 12.9058C11.0764 11.7468 12.3568 10.7336 13.9082 9.8662C12.7405 10.9004 11.7353 12.0304 10.8925 13.2561C10.0505 14.4825 9.42094 15.9215 9.00391 17.5729Z" fill="#292B2E"/>
</svg>
