<svg width="24" height="24" viewBox="0 0 24 24" fill="none" xmlns="http://www.w3.org/2000/svg">
<path d="M11.5385 15.9385C12.9607 14.8034 14.0342 13.7127 14.759 12.6663C15.4838 11.6204 15.8462 10.6188 15.8462 9.66154C15.8462 8.8547 15.699 8.16738 15.4047 7.59959C15.111 7.03234 14.7489 6.57422 14.3184 6.22523C13.8873 5.87679 13.4188 5.6238 12.9128 5.46626C12.4068 5.30927 11.9487 5.23077 11.5385 5.23077C11.1282 5.23077 10.6701 5.30927 10.1641 5.46626C9.65812 5.6238 9.18988 5.87679 8.75938 6.22523C8.32834 6.57422 7.96568 7.03234 7.67138 7.59959C7.37764 8.16738 7.23077 8.8547 7.23077 9.66154C7.23077 10.6188 7.59316 11.6204 8.31795 12.6663C9.04273 13.7127 10.1162 14.8034 11.5385 15.9385ZM11.5385 17.2308C11.4291 17.2308 11.3265 17.2171 11.2308 17.1897C11.135 17.1624 11.0462 17.1145 10.9641 17.0462C9.29573 15.747 8.05128 14.4853 7.23077 13.2611C6.41026 12.0375 6 10.8376 6 9.66154C6 8.73162 6.16766 7.91439 6.50297 7.20985C6.83774 6.50585 7.26851 5.91453 7.79528 5.4359C8.3215 4.95726 8.91638 4.59843 9.5799 4.35938C10.2429 4.11979 10.8957 4 11.5385 4C12.1812 4 12.8343 4.11979 13.4978 4.35938C14.1608 4.59843 14.7554 4.95726 15.2816 5.4359C15.8084 5.91453 16.2395 6.50585 16.5748 7.20985C16.9095 7.91439 17.0769 8.73162 17.0769 9.66154C17.0769 10.8376 16.6667 12.0375 15.8462 13.2611C15.0256 14.4853 13.7812 15.747 12.1128 17.0462C12.0444 17.1145 11.9591 17.1624 11.8568 17.1897C11.754 17.2171 11.6479 17.2308 11.5385 17.2308ZM11.5385 10.9744C11.935 10.9744 12.2736 10.8343 12.5543 10.5543C12.8343 10.2736 12.9744 9.93504 12.9744 9.53846C12.9744 9.14188 12.8343 8.80328 12.5543 8.52267C12.2736 8.2426 11.935 8.10256 11.5385 8.10256C11.1419 8.10256 10.8033 8.2426 10.5227 8.52267C10.2426 8.80328 10.1026 9.14188 10.1026 9.53846C10.1026 9.93504 10.2426 10.2736 10.5227 10.5543C10.8033 10.8343 11.1419 10.9744 11.5385 10.9744ZM6.61538 20C6.43761 20 6.29073 19.942 6.17477 19.8261C6.05826 19.7095 6 19.5624 6 19.3846C6 19.2068 6.05826 19.0597 6.17477 18.9432C6.29073 18.8272 6.43761 18.7692 6.61538 18.7692H16.4615C16.6393 18.7692 16.7865 18.8272 16.903 18.9432C17.0189 19.0597 17.0769 19.2068 17.0769 19.3846C17.0769 19.5624 17.0189 19.7095 16.903 19.8261C16.7865 19.942 16.6393 20 16.4615 20H6.61538Z" fill="#292B2E"/>
</svg>
