<svg width="24" height="24" viewBox="0 0 24 24" fill="none" xmlns="http://www.w3.org/2000/svg">
<path d="M18.6149 19.6588L14.7006 15.8685C14.1574 16.3211 13.5328 16.6742 12.8267 16.9276C12.1205 17.1811 11.3963 17.3079 10.6539 17.3079C8.78902 17.3079 7.21381 16.6651 5.92828 15.3796C4.64276 14.0941 4 12.5188 4 10.6539C4 8.80713 4.64276 7.23626 5.92828 5.94132C7.21381 4.64711 8.78902 4 10.6539 4C12.5007 4 14.0669 4.64276 15.3524 5.92828C16.638 7.21381 17.2807 8.78902 17.2807 10.6539C17.2807 11.4325 17.154 12.1748 16.9005 12.881C16.647 13.5871 16.303 14.2027 15.8684 14.7278L19.7827 18.5453C19.9276 18.6902 20 18.8712 20 19.0885C20 19.3058 19.9185 19.4959 19.7556 19.6588C19.5926 19.8218 19.3982 19.9032 19.1722 19.9032C18.9455 19.9032 18.7597 19.8218 18.6149 19.6588ZM10.6539 15.6783C12.0481 15.6783 13.2297 15.1895 14.1987 14.2118C15.167 13.234 15.6512 12.0481 15.6512 10.6539C15.6512 9.25978 15.167 8.07384 14.1987 7.09612C13.2297 6.1184 12.0481 5.62954 10.6539 5.62954C9.24167 5.62954 8.05139 6.1184 7.08308 7.09612C6.11405 8.07384 5.62954 9.25978 5.62954 10.6539C5.62954 12.0481 6.11405 13.234 7.08308 14.2118C8.05139 15.1895 9.24167 15.6783 10.6539 15.6783Z" fill="#292B2E"/>
</svg>
