<svg width="25" height="24" viewBox="0 0 25 24" fill="none" xmlns="http://www.w3.org/2000/svg">
<path d="M7.30282 18.7183C6.64085 18.7183 6.08085 18.4896 5.62282 18.0321C5.16535 17.5741 4.93662 17.0141 4.93662 16.3521C4.54225 16.3239 4.20423 16.162 3.92254 15.8662C3.64085 15.5704 3.5 15.2254 3.5 14.831V7.52113C3.5 7.09859 3.64789 6.73944 3.94366 6.44366C4.23944 6.14789 4.59859 6 5.02113 6H14.993C15.4155 6 15.7783 6.14789 16.0814 6.44366C16.3839 6.73944 16.5352 7.09859 16.5352 7.52113V9.21127H18.3944C18.5211 9.21127 18.6338 9.23944 18.7324 9.29577C18.831 9.35211 18.9225 9.42958 19.007 9.52817L21.3521 12.6761C21.4085 12.7324 21.4473 12.7992 21.4687 12.8763C21.4896 12.9541 21.5 13.0352 21.5 13.1197V15.5915C21.5 15.8028 21.4262 15.9825 21.2786 16.1307C21.1304 16.2783 20.9507 16.3521 20.7394 16.3521H19.9789C19.9789 17.0141 19.7465 17.5741 19.2817 18.0321C18.8169 18.4896 18.2535 18.7183 17.5915 18.7183C16.9437 18.7183 16.3873 18.4896 15.9225 18.0321C15.4577 17.5741 15.2254 17.0141 15.2254 16.3521H9.66901C9.66901 17.0141 9.44028 17.5741 8.98282 18.0321C8.52479 18.4896 7.96479 18.7183 7.30282 18.7183ZM7.30282 17.4507C7.61268 17.4507 7.87324 17.3451 8.08451 17.1338C8.29577 16.9225 8.40141 16.662 8.40141 16.3521C8.40141 16.0423 8.29577 15.7817 8.08451 15.5704C7.87324 15.3592 7.61268 15.2535 7.30282 15.2535C6.99296 15.2535 6.73239 15.3592 6.52113 15.5704C6.30986 15.7817 6.20423 16.0423 6.20423 16.3521C6.20423 16.662 6.30986 16.9225 6.52113 17.1338C6.73239 17.3451 6.99296 17.4507 7.30282 17.4507ZM4.76761 7.52113V14.831C4.76761 14.8592 4.77099 14.8873 4.77775 14.9155C4.78507 14.9437 4.79944 14.9682 4.82085 14.989L4.88423 15.0524C4.90507 15.0738 4.92958 15.0845 4.95775 15.0845H5.38028C5.56338 14.7746 5.82394 14.5141 6.16197 14.3028C6.5 14.0915 6.88028 13.9859 7.30282 13.9859C7.71127 13.9859 8.08817 14.0879 8.43352 14.2918C8.77831 14.4963 9.04225 14.7606 9.22535 15.0845H15.2676V7.52113C15.2676 7.4507 15.2431 7.39099 15.1941 7.34197C15.1445 7.29239 15.0775 7.26761 14.993 7.26761H5.02113C4.9507 7.26761 4.89099 7.29239 4.84197 7.34197C4.79239 7.39099 4.76761 7.4507 4.76761 7.52113ZM17.6127 17.4507C17.9225 17.4507 18.1831 17.3451 18.3944 17.1338C18.6056 16.9225 18.7113 16.662 18.7113 16.3521C18.7113 16.0423 18.6056 15.7817 18.3944 15.5704C18.1831 15.3592 17.9225 15.2535 17.6127 15.2535C17.3028 15.2535 17.0389 15.3592 16.8208 15.5704C16.6023 15.7817 16.493 16.0423 16.493 16.3521C16.493 16.662 16.6023 16.9225 16.8208 17.1338C17.0389 17.3451 17.3028 17.4507 17.6127 17.4507ZM16.5352 13.3944H20.3169L18.1197 10.4789H16.5352V13.3944Z" fill="#292B2E"/>
</svg>
