<svg width="8" height="5" viewBox="0 0 8 5" fill="none" xmlns="http://www.w3.org/2000/svg">
<path d="M4 4.49615C3.91277 4.49615 3.82878 4.48369 3.74804 4.45877C3.66679 4.43385 3.59502 4.38401 3.53271 4.30924L0.149533 0.944753C0.0498441 0.832603 0 0.701763 0 0.55223C0 0.402697 0.0560747 0.271856 0.168224 0.159707C0.280374 0.0600184 0.411215 0.0101736 0.560748 0.0101736C0.71028 0.0101736 0.841121 0.0600184 0.953271 0.159707L4 3.20644L7.06542 0.159707C7.16511 0.0475573 7.28972 -0.00552703 7.43925 0.000454275C7.58879 0.00693402 7.71963 0.0600184 7.83178 0.159707C7.94392 0.271856 8 0.405688 8 0.561202C8 0.717214 7.94392 0.845064 7.83178 0.944753L4.46729 4.30924C4.40498 4.38401 4.33346 4.43385 4.25271 4.45877C4.17146 4.48369 4.08723 4.49615 4 4.49615Z" fill="#292B2E"/>
</svg>
