<svg width="180" height="40" viewBox="0 0 180 40" fill="none" xmlns="http://www.w3.org/2000/svg">
<path d="M8.34465e-07 40C104.688 40 131.753 -17.7773 180 5.5469V40H8.34465e-07Z" fill="#F8F8FB"/>
<path d="M160.027 20C160.027 20.1002 160.012 20.1967 159.984 20.2895C159.955 20.3828 159.898 20.4653 159.812 20.5369L155.066 25.2832C154.951 25.4121 154.804 25.4765 154.625 25.4765C154.446 25.4765 154.292 25.4121 154.164 25.2832C154.049 25.1544 153.992 25.0003 153.992 24.821C153.992 24.6424 154.049 24.4886 154.164 24.3597L157.9 20.6443L144.671 20.6443C144.485 20.6443 144.331 20.5833 144.209 20.4613C144.087 20.3399 144.027 20.1861 144.027 20C144.027 19.8139 144.087 19.6598 144.209 19.5378C144.331 19.4164 144.485 19.3557 144.671 19.3557L157.9 19.3557L154.164 15.6188C154.049 15.5042 153.988 15.3573 153.981 15.1781C153.974 14.9994 154.035 14.8456 154.164 14.7168C154.292 14.5879 154.446 14.5235 154.625 14.5235C154.804 14.5235 154.951 14.5879 155.066 14.7168L159.812 19.4631C159.898 19.5347 159.955 19.6168 159.984 19.7096C160.012 19.803 160.027 19.8998 160.027 20Z" fill="#292B2E"/>
</svg>
