<svg width="24" height="24" viewBox="0 0 24 24" fill="none" xmlns="http://www.w3.org/2000/svg">
<path fill-rule="evenodd" clip-rule="evenodd" d="M6 20.8125C6 19.777 6.86099 18.9375 7.92308 18.9375C8.98516 18.9375 9.84615 19.777 9.84615 20.8125C9.84615 21.848 8.98516 22.6875 7.92308 22.6875C6.86099 22.6875 6 21.848 6 20.8125ZM17.2019 18.9375C16.1398 18.9375 15.2788 19.777 15.2788 20.8125C15.2788 21.848 16.1398 22.6875 17.2019 22.6875C18.264 22.6875 19.125 21.848 19.125 20.8125C19.125 19.777 18.264 18.9375 17.2019 18.9375Z" fill="#292B2E"/>
<path d="M1 4.8125H2.875L3.86184 7.9375M3.86184 7.9375L6.625 16.6875H18.5L21 7.9375H3.86184Z" stroke="#292B2E" stroke-width="1.625" stroke-linecap="round" stroke-linejoin="round"/>
</svg>
